<?xml version="1.0" standalone="no"?>
<!DOCTYPE svg PUBLIC "-//W3C//DTD SVG 20010904//EN"
 "http://www.w3.org/TR/2001/REC-SVG-20010904/DTD/svg10.dtd">
<svg version="1.0" xmlns="http://www.w3.org/2000/svg"
 width="225.000000pt" height="225.000000pt" viewBox="0 0 225.000000 225.000000"
 preserveAspectRatio="xMidYMid meet">

<g transform="translate(0.000000,225.000000) scale(0.100000,-0.100000)"
fill="#000000" stroke="none">
<path d="M943 2176 c-205 -39 -391 -131 -534 -264 l-60 -55 22 -23 22 -24 46
43 c206 192 483 291 757 271 l91 -7 6 29 c3 16 3 31 1 33 -12 12 -285 9 -351
-3z"/>
<path d="M1358 2132 c-4 -28 -2 -30 66 -52 138 -44 276 -125 383 -224 78 -72
158 -175 141 -180 -7 -3 -37 -11 -67 -20 l-54 -15 -65 70 c-108 116 -253 206
-404 250 -105 30 -288 37 -399 15 -231 -47 -435 -186 -562 -381 -67 -105 -98
-186 -131 -346 -5 -21 -15 -28 -66 -42 -33 -9 -62 -17 -65 -17 -13 0 -3 86 20
176 29 114 85 238 151 332 l46 66 -23 19 -24 19 -32 -39 c-93 -110 -183 -334
-205 -509 -9 -71 -19 -108 -35 -133 -41 -60 -39 -87 13 -284 52 -196 72 -234
137 -258 21 -8 49 -36 82 -81 127 -175 325 -318 536 -387 81 -27 86 -27 91 9
4 28 3 30 -66 50 -133 41 -275 124 -383 224 -78 72 -158 175 -141 180 7 3 37
11 67 20 l54 15 65 -70 c108 -116 253 -206 404 -250 105 -30 288 -37 399 -15
231 47 435 186 562 381 67 105 98 186 131 346 5 21 15 28 66 42 33 9 62 17 65
17 13 0 3 -86 -20 -176 -29 -114 -85 -238 -151 -332 l-46 -66 23 -19 c24 -19
24 -19 52 14 47 56 109 169 145 263 33 88 72 258 72 316 0 16 11 46 25 66 43
63 42 88 -11 287 -52 196 -73 234 -137 258 -20 7 -45 30 -67 62 -81 118 -225
249 -351 319 -75 42 -200 94 -251 103 -34 6 -36 5 -40 -23z m-93 -217 c160
-28 321 -113 435 -230 62 -62 61 -65 -24 -84 -49 -11 -53 -14 -48 -37 2 -13 8
-27 13 -30 5 -3 85 15 179 40 186 51 205 53 238 30 32 -22 39 -38 87 -220 42
-155 44 -168 30 -200 -9 -21 -26 -39 -47 -49 -18 -8 -330 -94 -693 -190 -363
-97 -675 -181 -692 -186 -29 -9 -32 -14 -27 -37 4 -15 8 -28 9 -30 2 -2 270
69 596 156 327 88 595 159 597 157 10 -9 -36 -155 -73 -230 -138 -277 -421
-455 -723 -455 -136 0 -311 53 -430 129 -60 39 -192 157 -192 172 0 4 19 13
43 19 23 6 59 16 80 21 34 9 37 12 31 37 -4 15 -8 29 -10 31 -2 2 -89 -19
-193 -48 -208 -56 -226 -58 -259 -35 -32 22 -39 38 -87 220 -41 154 -43 168
-31 199 8 18 24 39 36 45 12 6 344 98 738 204 l717 193 -2 28 c-1 15 -4 29 -6
31 -1 2 -277 -70 -613 -160 -335 -90 -610 -163 -612 -161 -10 9 36 155 73 230
115 234 324 392 580 440 95 18 176 18 280 0z"/>
<path d="M1060 1741 l0 -31 58 0 c31 0 88 -7 127 -15 38 -8 71 -15 72 -15 0 0
6 13 11 29 9 27 8 29 -26 40 -21 7 -83 15 -139 18 l-103 6 0 -32z"/>
<path d="M948 1749 c-24 -9 -26 -13 -16 -40 9 -25 14 -28 36 -23 35 9 33 6 26
42 -7 35 -7 35 -46 21z"/>
<path d="M794 1681 c-28 -16 -77 -53 -108 -82 l-57 -52 22 -23 22 -23 54 49
c30 28 76 62 101 77 26 15 48 27 50 28 5 4 -21 55 -27 55 -3 0 -29 -13 -57
-29z"/>
<path d="M1391 1682 c-11 -22 -10 -28 5 -39 26 -19 39 -16 52 12 10 22 9 26
-17 39 -27 14 -29 14 -40 -12z"/>
<path d="M1919 1508 l-77 -20 40 -151 c22 -84 43 -155 47 -160 4 -4 20 -3 37
2 16 5 55 17 87 26 52 14 57 18 51 38 -10 36 -17 38 -73 21 -29 -8 -55 -14
-57 -11 -2 2 -6 17 -10 33 -6 30 -5 31 50 44 56 13 65 24 50 63 -5 13 -12 13
-61 0 -59 -15 -71 -11 -75 26 -3 22 3 26 52 38 30 8 56 16 58 18 2 1 0 14 -4
29 -7 31 -13 31 -115 4z"/>
<path d="M568 1455 c-10 -21 -8 -28 8 -40 26 -19 29 -19 48 10 15 23 15 25 -6
40 -30 20 -37 19 -50 -10z"/>
<path d="M1625 1432 c-11 -2 -24 -7 -28 -12 -5 -4 10 -76 32 -159 23 -84 41
-154 41 -156 0 -3 34 5 128 31 53 15 63 30 43 63 -7 11 -17 11 -62 -2 -30 -9
-57 -13 -60 -9 -3 4 -21 61 -39 127 -17 66 -33 120 -33 121 -1 0 -11 -2 -22
-4z"/>
<path d="M1373 1362 c-35 -8 -63 -20 -63 -26 0 -16 79 -298 84 -304 3 -2 17
-1 32 2 21 6 25 11 20 29 -3 12 -9 38 -12 58 -6 34 -4 36 26 42 106 22 123
162 24 203 -38 16 -31 16 -111 -4z m105 -64 c29 -29 8 -63 -45 -74 -29 -6 -31
-4 -37 31 -5 27 -4 40 6 46 19 13 62 11 76 -3z"/>
<path d="M1193 1308 c-6 -7 -19 -41 -28 -75 l-17 -62 -59 50 c-44 39 -63 49
-78 44 -27 -8 -27 -16 18 -180 l38 -140 29 3 c16 2 30 5 32 7 2 1 -8 41 -21
89 -14 47 -22 86 -19 86 3 0 18 -12 33 -26 37 -35 63 -26 81 28 l14 42 24 -92
c18 -69 27 -91 38 -87 7 3 20 5 28 5 20 0 18 20 -24 175 -32 118 -41 140 -59
143 -11 2 -24 -3 -30 -10z"/>
<path d="M763 1186 c-55 -46 -58 -78 -24 -206 17 -62 32 -115 34 -117 3 -2 17
-1 32 3 24 6 26 10 21 39 -6 32 -5 33 38 44 62 15 64 15 71 -18 6 -28 8 -29
36 -19 16 5 29 13 29 16 0 4 -13 56 -30 117 -35 131 -55 156 -127 162 -42 4
-53 1 -80 -21z m100 -49 c24 -17 51 -107 34 -112 -7 -2 -27 -8 -46 -14 -47
-15 -48 -15 -60 20 -29 83 15 148 72 106z"/>
<path d="M554 1089 l-17 -60 -44 43 -43 42 -22 -22 -22 -22 54 -55 53 -54 -21
-73 c-11 -40 -20 -74 -18 -76 2 -1 16 -4 32 -5 25 -2 29 3 43 48 8 28 16 52
18 54 2 3 23 -14 46 -37 l43 -42 23 23 22 24 -57 52 -57 52 17 57 c10 31 19
64 22 73 3 12 -5 20 -25 27 l-30 11 -17 -60z"/>
<path d="M232 1056 c-45 -13 -84 -25 -85 -27 -7 -9 78 -309 88 -309 5 0 47 9
92 21 80 21 82 23 76 48 -3 14 -7 28 -9 30 -2 2 -30 -3 -63 -11 -58 -15 -59
-15 -65 6 -11 39 -6 45 49 61 56 16 67 31 46 64 -7 11 -17 11 -62 -2 -58 -17
-63 -16 -73 25 -6 25 -4 27 49 39 31 7 58 15 60 18 5 9 -6 61 -14 60 -3 0 -43
-11 -89 -23z"/>
<path d="M1626 825 c-15 -23 -15 -25 10 -42 25 -16 27 -16 40 2 18 25 18 35
-3 51 -25 18 -28 17 -47 -11z"/>
<path d="M1539 714 c-31 -33 -134 -107 -160 -116 -7 -2 -7 -11 2 -31 7 -15 15
-27 18 -27 19 0 118 67 166 112 l57 53 -24 22 -24 23 -35 -36z"/>
<path d="M802 595 c-10 -22 -9 -26 17 -39 27 -14 29 -14 40 12 11 22 10 28 -5
39 -26 19 -39 16 -52 -12z"/>
<path d="M922 541 c-9 -27 -8 -29 26 -40 21 -7 83 -15 140 -18 l102 -6 0 32 0
31 -57 0 c-32 0 -89 7 -128 15 -38 8 -71 15 -72 15 0 0 -6 -13 -11 -29z"/>
<path d="M1272 563 c-20 -4 -22 -9 -16 -36 8 -41 6 -39 42 -26 28 10 30 12 20
40 -5 16 -13 28 -16 28 -4 -1 -17 -4 -30 -6z"/>
<path d="M1824 409 c-52 -55 -167 -137 -249 -178 -163 -80 -275 -105 -472
-104 l-141 1 -5 -27 c-3 -14 -3 -28 0 -31 2 -3 77 -5 166 -5 132 1 178 5 248
22 176 44 349 137 472 253 l59 55 -24 22 -24 23 -30 -31z"/>
</g>
</svg>
